<?xml version="1.0" standalone="no"?>
<!DOCTYPE svg PUBLIC "-//W3C//DTD SVG 20010904//EN"
 "http://www.w3.org/TR/2001/REC-SVG-20010904/DTD/svg10.dtd">
<svg version="1.0" xmlns="http://www.w3.org/2000/svg"
 width="574.000000pt" height="574.000000pt" viewBox="0 0 574.000000 574.000000"
 preserveAspectRatio="xMidYMid meet">
<metadata>
Created by potrace 1.11, written by Peter Selinger 2001-2013
</metadata>
<g transform="translate(0.000000,574.000000) scale(0.100000,-0.100000)"
fill="#000000" stroke="none">
<path d="M2416 4842 c-46 -243 -50 -284 -50 -457 0 -183 12 -292 50 -478 45
-217 138 -458 240 -630 30 -49 183 -275 201 -297 12 -13 225 309 285 430 93
187 173 462 203 693 17 137 20 385 4 507 -10 81 -55 330 -64 358 -6 18 -215
-125 -332 -228 l-93 -80 -57 52 c-94 85 -253 205 -349 261 -8 5 -20 -36 -38
-131z m292 -316 c46 -38 98 -87 117 -109 l34 -40 94 90 c102 96 173 150 184
139 4 -3 7 -102 7 -219 0 -240 -10 -316 -75 -567 -41 -159 -101 -315 -168
-433 l-38 -68 -25 43 c-110 188 -180 392 -229 665 -23 134 -35 376 -24 506 6
80 8 87 23 75 10 -7 54 -44 100 -82z"/>
<path d="M830 3794 c0 -10 49 -180 69 -237 11 -32 39 -101 62 -154 49 -110 56
-93 -69 -161 -90 -49 -332 -227 -321 -236 2 -2 65 -37 139 -78 210 -117 332
-168 515 -214 200 -51 309 -66 535 -71 237 -6 357 6 545 53 96 25 286 82 294
90 5 5 -125 177 -204 269 -145 171 -307 306 -509 426 -294 175 -533 256 -904
303 -136 18 -152 19 -152 10z m464 -286 c281 -75 599 -255 842 -477 162 -147
156 -137 92 -150 -251 -52 -515 -52 -788 0 -99 19 -342 94 -439 136 l-45 19
58 42 c32 23 103 64 157 92 l99 51 -40 79 c-42 83 -100 223 -100 240 0 12 9
10 164 -32z"/>
<path d="M4815 3793 c-374 -44 -612 -114 -872 -254 -310 -168 -495 -326 -716
-611 -50 -66 -95 -125 -99 -132 -5 -9 35 -25 150 -59 250 -74 331 -88 547 -94
391 -11 731 55 1016 197 99 50 309 168 309 175 0 16 -263 203 -372 264 l-57
33 28 56 c39 78 94 228 124 340 l26 92 -27 -1 c-15 -1 -40 -4 -57 -6z m-245
-329 c-18 -44 -50 -114 -72 -157 -22 -43 -39 -80 -36 -82 2 -2 31 -19 64 -36
66 -35 220 -135 229 -149 12 -19 -281 -118 -458 -155 -240 -48 -691 -43 -836
10 -10 4 1 22 40 62 151 155 387 322 604 428 147 72 485 184 493 165 2 -4 -11
-43 -28 -86z"/>
<path d="M2565 2436 c-260 -94 -374 -148 -518 -244 -141 -93 -312 -245 -440
-387 -122 -137 -212 -276 -323 -500 l-94 -190 32 -9 c32 -8 389 -1 458 10 l35
6 23 -113 c23 -112 102 -363 121 -382 6 -6 70 51 178 159 223 222 309 336 419
556 113 225 189 448 219 643 18 114 33 495 19 494 -5 0 -63 -19 -129 -43z
m-65 -260 c0 -59 -43 -268 -75 -362 -77 -230 -190 -463 -301 -616 -76 -105
-153 -198 -164 -198 -14 0 -80 280 -80 341 0 3 -33 0 -72 -7 -40 -7 -122 -16
-182 -20 l-108 -7 12 24 c21 39 129 199 179 264 95 125 352 361 491 451 62 40
277 153 293 154 4 0 7 -11 7 -24z"/>
<path d="M3024 2308 c16 -388 65 -588 225 -923 122 -253 216 -380 451 -608
l163 -159 14 33 c33 78 102 301 119 382 l18 89 31 -7 c55 -11 459 -17 475 -6
12 8 -3 43 -82 203 -143 288 -228 407 -429 603 -205 200 -341 299 -550 399
-106 51 -408 166 -436 166 -3 0 -3 -78 1 -172z m345 -170 c160 -84 256 -154
441 -322 122 -111 209 -212 312 -366 l91 -135 -36 -3 c-32 -3 -232 20 -298 34
-25 6 -25 4 -47 -103 -11 -59 -31 -139 -43 -178 l-21 -70 -45 50 c-220 249
-400 613 -461 935 -11 58 -24 131 -27 164 -8 58 -7 58 16 51 13 -4 66 -29 118
-57z"/>
</g>
</svg>
